<svg width="218" height="39" viewBox="0 0 218 39" fill="none" xmlns="http://www.w3.org/2000/svg">
<path d="M53.632 7.864H68.992V10.84H62.784V31H59.68V10.84H53.632V7.864ZM70.6258 31V6.232H73.5378V20.824L73.4738 20.28C73.9218 19.4053 74.6044 18.68 75.5218 18.104C76.4604 17.528 77.5591 17.24 78.8178 17.24C80.0764 17.24 81.1004 17.6133 81.8898 18.36C82.7004 19.0853 83.1164 20.0347 83.1378 21.208V31H80.1298V22.264C80.1084 21.5387 79.8951 20.952 79.4898 20.504C79.1058 20.0347 78.4978 19.8 77.6658 19.8C76.8978 19.8 76.2044 20.024 75.5858 20.472C74.9671 20.8987 74.4764 21.4853 74.1138 22.232C73.7724 22.9787 73.6018 23.832 73.6018 24.792V31H70.6258ZM85.7533 17.752H88.7293V31H85.7533V17.752ZM85.5293 12.952C85.5293 12.4827 85.7106 12.088 86.0733 11.768C86.4573 11.448 86.8733 11.288 87.3213 11.288C87.7693 11.288 88.1639 11.448 88.5053 11.768C88.8679 12.088 89.0493 12.4827 89.0493 12.952C89.0493 13.4427 88.8679 13.848 88.5053 14.168C88.1639 14.4667 87.7693 14.616 87.3213 14.616C86.8733 14.616 86.4573 14.456 86.0733 14.136C85.7106 13.816 85.5293 13.4213 85.5293 12.952ZM93.9742 17.752L94.2302 20.984L94.1023 20.472C94.5289 19.4907 95.2222 18.712 96.1823 18.136C97.1423 17.5387 98.2516 17.24 99.5103 17.24C100.769 17.24 101.793 17.6133 102.582 18.36C103.393 19.0853 103.809 20.0347 103.83 21.208V31H100.822V22.264C100.801 21.5387 100.588 20.952 100.182 20.504C99.7982 20.0347 99.1903 19.8 98.3583 19.8C97.5903 19.8 96.8969 20.0133 96.2783 20.44C95.6596 20.8667 95.1689 21.4533 94.8063 22.2C94.4649 22.9467 94.2943 23.8107 94.2943 24.792V31H91.3182V17.752H93.9742ZM106.446 31V6.232H109.422V31H106.446ZM112.622 22.2L118.702 31H115.214L110.638 23.864L112.622 22.2ZM108.494 26.776L108.206 23.928L116.238 17.464L118.062 19.032L108.494 26.776ZM118.255 31L128.367 6.904H128.559L138.639 31H135.087L127.535 11.768L129.743 10.328L121.295 31H118.255ZM124.175 22.232H132.783L133.807 24.92H123.279L124.175 22.232ZM140.437 7.864H143.541V31H140.437V7.864ZM149.547 17.752L149.803 20.728L149.675 20.472C150.165 19.4693 150.859 18.68 151.755 18.104C152.672 17.528 153.717 17.24 154.891 17.24C155.637 17.24 156.299 17.3573 156.875 17.592C157.451 17.8267 157.92 18.168 158.283 18.616C158.667 19.0427 158.912 19.576 159.019 20.216L158.859 20.312C159.371 19.352 160.075 18.6053 160.971 18.072C161.888 17.5173 162.848 17.24 163.851 17.24C165.152 17.24 166.176 17.6133 166.923 18.36C167.691 19.0853 168.085 20.0347 168.107 21.208V31H165.131V22.264C165.109 21.5813 164.939 21.016 164.619 20.568C164.32 20.0987 163.787 19.8427 163.019 19.8C162.251 19.8 161.557 20.0347 160.939 20.504C160.341 20.9733 159.872 21.5813 159.531 22.328C159.189 23.0533 159.008 23.8427 158.987 24.696V31H156.011V22.264C155.989 21.5813 155.808 21.016 155.467 20.568C155.147 20.0987 154.603 19.8427 153.835 19.8C153.045 19.8 152.352 20.0347 151.755 20.504C151.157 20.9733 150.688 21.5813 150.347 22.328C150.027 23.0747 149.867 23.8747 149.867 24.728V31H146.891V17.752H149.547ZM176.241 31.32C175.004 31.32 173.873 31.0533 172.849 30.52C171.846 29.9867 171.046 29.208 170.449 28.184C169.873 27.1387 169.585 25.8693 169.585 24.376C169.585 22.904 169.894 21.6347 170.513 20.568C171.132 19.48 171.953 18.648 172.977 18.072C174.022 17.496 175.164 17.208 176.401 17.208C177.638 17.208 178.684 17.496 179.537 18.072C180.39 18.6267 181.041 19.288 181.489 20.056L181.297 20.568L181.585 17.752H184.337V31H181.361V27.544L181.681 28.312C181.596 28.5253 181.404 28.8027 181.105 29.144C180.828 29.464 180.444 29.7947 179.953 30.136C179.484 30.4773 178.94 30.7653 178.321 31C177.702 31.2133 177.009 31.32 176.241 31.32ZM177.041 28.856C177.788 28.856 178.46 28.7173 179.057 28.44C179.654 28.1627 180.145 27.7787 180.529 27.288C180.934 26.776 181.212 26.168 181.361 25.464V22.872C181.19 22.232 180.892 21.6773 180.465 21.208C180.038 20.7173 179.526 20.344 178.929 20.088C178.332 19.8107 177.67 19.672 176.945 19.672C176.156 19.672 175.43 19.864 174.769 20.248C174.108 20.632 173.574 21.1653 173.169 21.848C172.785 22.5307 172.593 23.3307 172.593 24.248C172.593 25.1013 172.796 25.88 173.201 26.584C173.606 27.288 174.15 27.8427 174.833 28.248C175.516 28.6533 176.252 28.856 177.041 28.856ZM193.295 37.56C192.314 37.56 191.45 37.4427 190.703 37.208C189.956 36.9947 189.274 36.6853 188.655 36.28C188.058 35.8747 187.482 35.416 186.927 34.904L188.655 32.888C189.359 33.5493 190.074 34.0613 190.799 34.424C191.524 34.7867 192.335 34.968 193.231 34.968C194.234 34.968 195.076 34.7973 195.759 34.456C196.463 34.136 196.996 33.6773 197.359 33.08C197.722 32.504 197.903 31.832 197.903 31.064L197.935 27.48L198.191 28.056C197.807 28.9733 197.114 29.752 196.111 30.392C195.108 31.0107 193.892 31.32 192.463 31.32C191.247 31.32 190.127 31.0107 189.103 30.392C188.1 29.7733 187.29 28.9413 186.671 27.896C186.074 26.8293 185.775 25.6347 185.775 24.312C185.775 22.9253 186.095 21.7093 186.735 20.664C187.375 19.5973 188.218 18.7547 189.263 18.136C190.308 17.5173 191.45 17.208 192.687 17.208C193.86 17.208 194.927 17.4533 195.887 17.944C196.868 18.4133 197.583 19.0213 198.031 19.768L197.871 20.312L198.191 17.752H200.911V31.096C200.911 32.2907 200.602 33.3787 199.983 34.36C199.364 35.3413 198.49 36.12 197.359 36.696C196.228 37.272 194.874 37.56 193.295 37.56ZM188.751 24.248C188.751 25.1013 188.954 25.88 189.359 26.584C189.764 27.288 190.308 27.8427 190.991 28.248C191.695 28.6533 192.474 28.856 193.327 28.856C194.116 28.856 194.82 28.7173 195.439 28.44C196.079 28.1413 196.612 27.7467 197.039 27.256C197.466 26.744 197.764 26.1573 197.935 25.496V22.872C197.743 22.232 197.423 21.6773 196.975 21.208C196.527 20.7173 195.994 20.344 195.375 20.088C194.756 19.8107 194.074 19.672 193.327 19.672C192.474 19.672 191.695 19.864 190.991 20.248C190.308 20.632 189.764 21.176 189.359 21.88C188.954 22.5627 188.751 23.352 188.751 24.248ZM209.636 31.32C208.121 31.32 206.82 31.0213 205.732 30.424C204.644 29.8053 203.801 28.9733 203.204 27.928C202.628 26.8613 202.34 25.6453 202.34 24.28C202.34 22.9787 202.671 21.7947 203.332 20.728C203.993 19.6613 204.879 18.808 205.988 18.168C207.097 17.528 208.335 17.208 209.7 17.208C211.449 17.208 212.9 17.72 214.052 18.744C215.204 19.768 215.983 21.176 216.388 22.968L205.476 26.808L204.772 25.048L213.732 21.784L213.092 22.2C212.836 21.496 212.409 20.888 211.812 20.376C211.215 19.8427 210.436 19.576 209.476 19.576C208.665 19.576 207.94 19.7787 207.3 20.184C206.66 20.568 206.159 21.1013 205.796 21.784C205.433 22.4667 205.252 23.2453 205.252 24.12C205.252 25.0373 205.444 25.848 205.828 26.552C206.212 27.2347 206.735 27.7787 207.396 28.184C208.079 28.568 208.847 28.76 209.7 28.76C210.276 28.76 210.831 28.6533 211.364 28.44C211.919 28.2267 212.431 27.9493 212.9 27.608L214.276 29.816C213.615 30.264 212.868 30.6267 212.036 30.904C211.225 31.1813 210.425 31.32 209.636 31.32Z" fill="#7857FF"/>
<path d="M53.632 7.864V7.364H53.132V7.864H53.632ZM68.992 7.864H69.492V7.364H68.992V7.864ZM68.992 10.84V11.34H69.492V10.84H68.992ZM62.784 10.84V10.34H62.284V10.84H62.784ZM62.784 31V31.5H63.284V31H62.784ZM59.68 31H59.18V31.5H59.68V31ZM59.68 10.84H60.18V10.34H59.68V10.84ZM53.632 10.84H53.132V11.34H53.632V10.84ZM53.632 8.364H68.992V7.364H53.632V8.364ZM68.492 7.864V10.84H69.492V7.864H68.492ZM68.992 10.34H62.784V11.34H68.992V10.34ZM62.284 10.84V31H63.284V10.84H62.284ZM62.784 30.5H59.68V31.5H62.784V30.5ZM60.18 31V10.84H59.18V31H60.18ZM59.68 10.34H53.632V11.34H59.68V10.34ZM54.132 10.84V7.864H53.132V10.84H54.132ZM70.6258 31H70.1258V31.5H70.6258V31ZM70.6258 6.232V5.732H70.1258V6.232H70.6258ZM73.5378 6.232H74.0378V5.732H73.5378V6.232ZM73.5378 20.824L73.0412 20.8824L74.0378 20.824H73.5378ZM73.4738 20.28L73.0287 20.0521L72.9594 20.1874L72.9772 20.3384L73.4738 20.28ZM75.5218 18.104L75.2602 17.6778L75.2559 17.6806L75.5218 18.104ZM81.8898 18.36L81.546 18.7234L81.5564 18.7326L81.8898 18.36ZM83.1378 21.208H83.6378L83.6377 21.1989L83.1378 21.208ZM83.1378 31V31.5H83.6378V31H83.1378ZM80.1298 31H79.6298V31.5H80.1298V31ZM80.1298 22.264H80.6298V22.2566L80.6295 22.2493L80.1298 22.264ZM79.4898 20.504L79.1028 20.8206L79.1106 20.8302L79.119 20.8395L79.4898 20.504ZM75.5858 20.472L75.8697 20.8837L75.879 20.877L75.5858 20.472ZM74.1138 22.232L73.6639 22.0135L73.659 22.0241L74.1138 22.232ZM73.6018 31V31.5H74.1018V31H73.6018ZM71.1258 31V6.232H70.1258V31H71.1258ZM70.6258 6.732H73.5378V5.732H70.6258V6.732ZM73.0378 6.232V20.824H74.0378V6.232H73.0378ZM74.0343 20.7656L73.9703 20.2216L72.9772 20.3384L73.0412 20.8824L74.0343 20.7656ZM73.9188 20.5079C74.3216 19.7214 74.9385 19.0606 75.7876 18.5274L75.2559 17.6806C74.2703 18.2994 73.5219 19.0893 73.0287 20.0521L73.9188 20.5079ZM75.7833 18.5302C76.6325 18.009 77.6379 17.74 78.8178 17.74V16.74C77.4802 16.74 76.2883 17.047 75.2602 17.6778L75.7833 18.5302ZM78.8178 17.74C79.9703 17.74 80.8643 18.0783 81.5462 18.7232L82.2334 17.9968C81.3365 17.1484 80.1825 16.74 78.8178 16.74V17.74ZM81.5564 18.7326C82.2546 19.3573 82.6188 20.1706 82.6378 21.2171L83.6377 21.1989C83.614 19.8988 83.1463 18.8133 82.2231 17.9874L81.5564 18.7326ZM82.6378 21.208V31H83.6378V21.208H82.6378ZM83.1378 30.5H80.1298V31.5H83.1378V30.5ZM80.6298 31V22.264H79.6298V31H80.6298ZM80.6295 22.2493C80.6054 21.4301 80.3609 20.7216 79.8605 20.1685L79.119 20.8395C79.4292 21.1824 79.6114 21.6472 79.63 22.2787L80.6295 22.2493ZM79.8767 20.1874C79.3659 19.563 78.5888 19.3 77.6658 19.3V20.3C78.4067 20.3 78.8456 20.5064 79.1028 20.8206L79.8767 20.1874ZM77.6658 19.3C76.793 19.3 75.997 19.5569 75.2925 20.067L75.879 20.877C76.4119 20.4911 77.0025 20.3 77.6658 20.3V19.3ZM75.3019 20.0604C74.6049 20.541 74.0603 21.1976 73.664 22.0135L74.5635 22.4505C74.8925 21.7731 75.3292 21.2563 75.8696 20.8836L75.3019 20.0604ZM73.659 22.0241C73.2832 22.8462 73.1018 23.7723 73.1018 24.792H74.1018C74.1018 23.8917 74.2616 23.1112 74.5685 22.4399L73.659 22.0241ZM73.1018 24.792V31H74.1018V24.792H73.1018ZM73.6018 30.5H70.6258V31.5H73.6018V30.5ZM85.7533 17.752V17.252H85.2533V17.752H85.7533ZM88.7293 17.752H89.2293V17.252H88.7293V17.752ZM88.7293 31V31.5H89.2293V31H88.7293ZM85.7533 31H85.2533V31.5H85.7533V31ZM86.0733 11.768L85.753 11.3837L85.7424 11.3931L86.0733 11.768ZM88.5053 11.768L88.1633 12.1328L88.1688 12.1379L88.1744 12.1429L88.5053 11.768ZM88.5053 14.168L88.8345 14.5443L88.8361 14.5429L88.5053 14.168ZM86.0733 14.136L85.7423 14.5111L85.7532 14.5201L86.0733 14.136ZM85.7533 18.252H88.7293V17.252H85.7533V18.252ZM88.2293 17.752V31H89.2293V17.752H88.2293ZM88.7293 30.5H85.7533V31.5H88.7293V30.5ZM86.2533 31V17.752H85.2533V31H86.2533ZM86.0293 12.952C86.0293 12.631 86.1452 12.3713 86.4041 12.1429L85.7424 11.3931C85.276 11.8047 85.0293 12.3343 85.0293 12.952H86.0293ZM86.3933 12.1521C86.6986 11.8978 87.0039 11.788 87.3213 11.788V10.788C86.7426 10.788 86.2159 10.9982 85.7532 11.3839L86.3933 12.1521ZM87.3213 11.788C87.6361 11.788 87.9101 11.8954 88.1633 12.1328L88.8472 11.4032C88.4178 11.0006 87.9024 10.788 87.3213 10.788V11.788ZM88.1744 12.1429C88.4333 12.3713 88.5493 12.631 88.5493 12.952H89.5493C89.5493 12.3343 89.3026 11.8047 88.8361 11.3931L88.1744 12.1429ZM88.5493 12.952C88.5493 13.3016 88.4278 13.5696 88.1744 13.7931L88.8361 14.5429C89.3081 14.1264 89.5493 13.5837 89.5493 12.952H88.5493ZM88.176 13.7917C87.9246 14.0117 87.6465 14.116 87.3213 14.116V15.116C87.892 15.116 88.4033 14.9216 88.8345 14.5443L88.176 13.7917ZM87.3213 14.116C87.0039 14.116 86.6986 14.0062 86.3933 13.7519L85.7532 14.5201C86.2159 14.9058 86.7426 15.116 87.3213 15.116V14.116ZM86.4041 13.7611C86.1452 13.5327 86.0293 13.2729 86.0293 12.952H85.0293C85.0293 13.5697 85.276 14.0993 85.7424 14.5109L86.4041 13.7611ZM93.9742 17.752L94.4727 17.7125L94.4362 17.252H93.9742V17.752ZM94.2302 20.984L93.7452 21.1053L94.7287 20.9445L94.2302 20.984ZM94.1023 20.472L93.6437 20.2726L93.576 20.4284L93.6172 20.5933L94.1023 20.472ZM96.1823 18.136L96.4395 18.5648L96.4464 18.5605L96.1823 18.136ZM102.582 18.36L102.239 18.7234L102.249 18.7326L102.582 18.36ZM103.83 21.208H104.33L104.33 21.1989L103.83 21.208ZM103.83 31V31.5H104.33V31H103.83ZM100.822 31H100.322V31.5H100.822V31ZM100.822 22.264H101.322V22.2566L101.322 22.2493L100.822 22.264ZM100.182 20.504L99.7953 20.8206L99.8031 20.8302L99.8115 20.8395L100.182 20.504ZM94.8063 22.2L94.3564 21.9815L94.3515 21.9921L94.8063 22.2ZM94.2943 31V31.5H94.7943V31H94.2943ZM91.3182 31H90.8182V31.5H91.3182V31ZM91.3182 17.752V17.252H90.8182V17.752H91.3182ZM93.4758 17.7915L93.7318 21.0235L94.7287 20.9445L94.4727 17.7125L93.4758 17.7915ZM94.7153 20.8627L94.5873 20.3507L93.6172 20.5933L93.7452 21.1053L94.7153 20.8627ZM94.5608 20.6714C94.9439 19.7902 95.5645 19.0898 96.4395 18.5647L95.925 17.7073C94.88 18.3342 94.1139 19.1911 93.6437 20.2726L94.5608 20.6714ZM96.4464 18.5605C97.3184 18.018 98.3341 17.74 99.5103 17.74V16.74C98.1691 16.74 96.9661 17.0594 95.9181 17.7115L96.4464 18.5605ZM99.5103 17.74C100.663 17.74 101.557 18.0783 102.239 18.7232L102.926 17.9968C102.029 17.1484 100.875 16.74 99.5103 16.74V17.74ZM102.249 18.7326C102.947 19.3573 103.311 20.1706 103.33 21.2171L104.33 21.1989C104.307 19.8988 103.839 18.8133 102.916 17.9874L102.249 18.7326ZM103.33 21.208V31H104.33V21.208H103.33ZM103.83 30.5H100.822V31.5H103.83V30.5ZM101.322 31V22.264H100.322V31H101.322ZM101.322 22.2493C101.298 21.4301 101.053 20.7216 100.553 20.1685L99.8115 20.8395C100.122 21.1824 100.304 21.6472 100.322 22.2787L101.322 22.2493ZM100.569 20.1874C100.058 19.563 99.2813 19.3 98.3583 19.3V20.3C99.0992 20.3 99.5381 20.5064 99.7953 20.8206L100.569 20.1874ZM98.3583 19.3C97.4912 19.3 96.6985 19.5428 95.9944 20.0284L96.5621 20.8516C97.0954 20.4838 97.6893 20.3 98.3583 20.3V19.3ZM95.9944 20.0284C95.2974 20.509 94.7528 21.1656 94.3565 21.9815L95.256 22.4185C95.585 21.7411 96.0217 21.2243 96.5621 20.8516L95.9944 20.0284ZM94.3515 21.9921C93.9751 22.8155 93.7943 23.7527 93.7943 24.792H94.7943C94.7943 23.8686 94.9547 23.0778 95.261 22.4079L94.3515 21.9921ZM93.7943 24.792V31H94.7943V24.792H93.7943ZM94.2943 30.5H91.3182V31.5H94.2943V30.5ZM91.8182 31V17.752H90.8182V31H91.8182ZM91.3182 18.252H93.9742V17.252H91.3182V18.252ZM106.446 31H105.946V31.5H106.446V31ZM106.446 6.232V5.732H105.946V6.232H106.446ZM109.422 6.232H109.922V5.732H109.422V6.232ZM109.422 31V31.5H109.922V31H109.422ZM112.622 22.2L113.033 21.9158L112.721 21.4641L112.3 21.8169L112.622 22.2ZM118.702 31V31.5H119.655L119.113 30.7158L118.702 31ZM115.214 31L114.793 31.2699L114.94 31.5H115.214V31ZM110.638 23.864L110.316 23.4809L109.979 23.7636L110.217 24.1339L110.638 23.864ZM108.494 26.776L107.996 26.8263L108.089 27.7466L108.808 27.1647L108.494 26.776ZM108.206 23.928L107.892 23.5385L107.681 23.7085L107.708 23.9783L108.206 23.928ZM116.238 17.464L116.564 17.0848L116.248 16.8137L115.924 17.0745L116.238 17.464ZM118.062 19.032L118.376 19.4207L118.842 19.0436L118.388 18.6528L118.062 19.032ZM106.946 31V6.232H105.946V31H106.946ZM106.446 6.732H109.422V5.732H106.446V6.732ZM108.922 6.232V31H109.922V6.232H108.922ZM109.422 30.5H106.446V31.5H109.422V30.5ZM112.21 22.4842L118.29 31.2842L119.113 30.7158L113.033 21.9158L112.21 22.4842ZM118.702 30.5H115.214V31.5H118.702V30.5ZM115.635 30.7301L111.059 23.5941L110.217 24.1339L114.793 31.2699L115.635 30.7301ZM110.959 24.2471L112.943 22.5831L112.3 21.8169L110.316 23.4809L110.959 24.2471ZM108.991 26.7257L108.703 23.8777L107.708 23.9783L107.996 26.8263L108.991 26.7257ZM108.519 24.3175L116.551 17.8535L115.924 17.0745L107.892 23.5385L108.519 24.3175ZM115.912 17.8432L117.736 19.4112L118.388 18.6528L116.564 17.0848L115.912 17.8432ZM117.747 18.6433L108.179 26.3873L108.808 27.1647L118.376 19.4207L117.747 18.6433ZM118.255 31L117.794 30.8065L117.503 31.5H118.255V31ZM128.367 6.904V6.404H128.035L127.906 6.71052L128.367 6.904ZM128.559 6.904L129.021 6.71104L128.892 6.404H128.559V6.904ZM138.639 31V31.5H139.39L139.101 30.807L138.639 31ZM135.087 31L134.622 31.1828L134.746 31.5H135.087V31ZM127.535 11.768L127.262 11.3492L126.921 11.5717L127.07 11.9508L127.535 11.768ZM129.743 10.328L130.206 10.5171L130.812 9.03389L129.47 9.90919L129.743 10.328ZM121.295 31V31.5H121.631L121.758 31.1891L121.295 31ZM124.175 22.232V21.732H123.815L123.701 22.0739L124.175 22.232ZM132.783 22.232L133.25 22.054L133.128 21.732H132.783V22.232ZM133.807 24.92V25.42H134.533L134.274 24.742L133.807 24.92ZM123.279 24.92L122.805 24.7619L122.586 25.42H123.279V24.92ZM118.716 31.1935L128.828 7.09748L127.906 6.71052L117.794 30.8065L118.716 31.1935ZM128.367 7.404H128.559V6.404H128.367V7.404ZM128.098 7.09696L138.178 31.193L139.101 30.807L129.021 6.71104L128.098 7.09696ZM138.639 30.5H135.087V31.5H138.639V30.5ZM135.553 30.8172L128.001 11.5852L127.07 11.9508L134.622 31.1828L135.553 30.8172ZM127.808 12.1868L130.016 10.7468L129.47 9.90919L127.262 11.3492L127.808 12.1868ZM129.28 10.1389L120.832 30.8109L121.758 31.1891L130.206 10.5171L129.28 10.1389ZM121.295 30.5H118.255V31.5H121.295V30.5ZM124.175 22.732H132.783V21.732H124.175V22.732ZM132.316 22.41L133.34 25.098L134.274 24.742L133.25 22.054L132.316 22.41ZM133.807 24.42H123.279V25.42H133.807V24.42ZM123.754 25.0781L124.65 22.3901L123.701 22.0739L122.805 24.7619L123.754 25.0781ZM140.437 7.864V7.364H139.937V7.864H140.437ZM143.541 7.864H144.041V7.364H143.541V7.864ZM143.541 31V31.5H144.041V31H143.541ZM140.437 31H139.937V31.5H140.437V31ZM140.437 8.364H143.541V7.364H140.437V8.364ZM143.041 7.864V31H144.041V7.864H143.041ZM143.541 30.5H140.437V31.5H143.541V30.5ZM140.937 31V7.864H139.937V31H140.937ZM149.547 17.752L150.045 17.7091L150.006 17.252H149.547V17.752ZM149.803 20.728L149.356 20.9516L150.301 20.6851L149.803 20.728ZM149.675 20.472L149.226 20.2522L149.117 20.4744L149.228 20.6956L149.675 20.472ZM151.755 18.104L151.489 17.6805L151.484 17.6834L151.755 18.104ZM156.875 17.592L157.063 17.129L157.063 17.129L156.875 17.592ZM158.283 18.616L157.894 18.9306L157.902 18.9408L157.911 18.9505L158.283 18.616ZM159.019 20.216L159.276 20.6447L159.568 20.4696L159.512 20.1338L159.019 20.216ZM158.859 20.312L158.418 20.0767L157.568 21.6695L159.116 20.7407L158.859 20.312ZM160.971 18.072L161.227 18.5017L161.229 18.4999L160.971 18.072ZM166.923 18.36L166.569 18.7136L166.574 18.7186L166.579 18.7235L166.923 18.36ZM168.107 21.208H168.607L168.607 21.1989L168.107 21.208ZM168.107 31V31.5H168.607V31H168.107ZM165.131 31H164.631V31.5H165.131V31ZM165.131 22.264H165.631V22.2562L165.631 22.2484L165.131 22.264ZM164.619 20.568L164.197 20.8364L164.204 20.8477L164.212 20.8586L164.619 20.568ZM163.019 19.8L163.046 19.3008L163.033 19.3H163.019V19.8ZM160.939 20.504L160.637 20.1056L160.63 20.1108L160.939 20.504ZM159.531 22.328L159.983 22.5409L159.985 22.5359L159.531 22.328ZM158.987 24.696L158.487 24.6835V24.696H158.987ZM158.987 31V31.5H159.487V31H158.987ZM156.011 31H155.511V31.5H156.011V31ZM156.011 22.264H156.511V22.2562L156.511 22.2484L156.011 22.264ZM155.467 20.568L155.054 20.8497L155.061 20.8605L155.069 20.871L155.467 20.568ZM153.835 19.8L153.862 19.3008L153.849 19.3H153.835V19.8ZM151.755 20.504L152.064 20.8972L152.064 20.8972L151.755 20.504ZM150.347 22.328L149.892 22.1201L149.887 22.131L150.347 22.328ZM149.867 31V31.5H150.367V31H149.867ZM146.891 31H146.391V31.5H146.891V31ZM146.891 17.752V17.252H146.391V17.752H146.891ZM149.049 17.7949L149.305 20.7709L150.301 20.6851L150.045 17.7091L149.049 17.7949ZM150.25 20.5044L150.122 20.2484L149.228 20.6956L149.356 20.9516L150.25 20.5044ZM150.124 20.6918C150.576 19.767 151.21 19.0488 152.025 18.5246L151.484 17.6834C150.508 18.3112 149.754 19.1717 149.226 20.2522L150.124 20.6918ZM152.021 18.5274C152.852 18.0056 153.803 17.74 154.891 17.74V16.74C153.631 16.74 152.492 17.0504 151.489 17.6806L152.021 18.5274ZM154.891 17.74C155.585 17.74 156.181 17.8491 156.686 18.055L157.063 17.129C156.417 16.8655 155.689 16.74 154.891 16.74V17.74ZM156.686 18.055C157.19 18.2605 157.589 18.5533 157.894 18.9306L158.671 18.3014C158.251 17.7827 157.711 17.3929 157.063 17.129L156.686 18.055ZM157.911 18.9505C158.223 19.2974 158.432 19.7396 158.526 20.2982L159.512 20.1338C159.392 19.4124 159.11 18.7879 158.654 18.2815L157.911 18.9505ZM158.762 19.7873L158.602 19.8833L159.116 20.7407L159.276 20.6447L158.762 19.7873ZM159.3 20.5473C159.771 19.6641 160.412 18.9862 161.226 18.5016L160.715 17.6424C159.737 18.2244 158.971 19.0399 158.418 20.0767L159.3 20.5473ZM161.229 18.4999C162.074 17.989 162.946 17.74 163.851 17.74V16.74C162.751 16.74 161.702 17.0457 160.712 17.6441L161.229 18.4999ZM163.851 17.74C165.052 17.74 165.937 18.0815 166.569 18.7136L167.276 18.0064C166.415 17.1452 165.252 16.74 163.851 16.74V17.74ZM166.579 18.7235C167.238 19.3459 167.588 20.1618 167.607 21.2171L168.607 21.1989C168.583 19.9076 168.143 18.8248 167.266 17.9965L166.579 18.7235ZM167.607 21.208V31H168.607V21.208H167.607ZM168.107 30.5H165.131V31.5H168.107V30.5ZM165.631 31V22.264H164.631V31H165.631ZM165.631 22.2484C165.607 21.4908 165.416 20.8233 165.026 20.2774L164.212 20.8586C164.462 21.2087 164.612 21.6719 164.631 22.2796L165.631 22.2484ZM165.041 20.2996C164.625 19.6465 163.909 19.3487 163.046 19.3008L162.991 20.2992C163.665 20.3366 164.015 20.5508 164.197 20.8364L165.041 20.2996ZM163.019 19.3C162.14 19.3 161.341 19.5712 160.637 20.1057L161.241 20.9023C161.774 20.4982 162.361 20.3 163.019 20.3V19.3ZM160.63 20.1108C159.965 20.6333 159.448 21.3069 159.076 22.1201L159.985 22.5359C160.296 21.8557 160.718 21.3133 161.248 20.8972L160.63 20.1108ZM159.078 22.1151C158.706 22.9072 158.51 23.7654 158.487 24.6835L159.487 24.7085C159.506 23.92 159.673 23.1994 159.983 22.5409L159.078 22.1151ZM158.487 24.696V31H159.487V24.696H158.487ZM158.987 30.5H156.011V31.5H158.987V30.5ZM156.511 31V22.264H155.511V31H156.511ZM156.511 22.2484C156.487 21.4842 156.281 20.8121 155.864 20.265L155.069 20.871C155.335 21.2199 155.492 21.6785 155.511 22.2796L156.511 22.2484ZM155.88 20.2863C155.444 19.6464 154.727 19.3488 153.862 19.3008L153.807 20.2992C154.479 20.3365 154.85 20.5509 155.054 20.8497L155.88 20.2863ZM153.835 19.3C152.938 19.3 152.135 19.5694 151.446 20.1108L152.064 20.8972C152.569 20.4999 153.153 20.3 153.835 20.3V19.3ZM151.446 20.1108C150.781 20.6333 150.264 21.3069 149.892 22.1201L150.801 22.5359C151.112 21.8557 151.534 21.3133 152.064 20.8972L151.446 20.1108ZM149.887 22.131C149.539 22.9431 149.367 23.8104 149.367 24.728H150.367C150.367 23.9389 150.514 23.2063 150.806 22.525L149.887 22.131ZM149.367 24.728V31H150.367V24.728H149.367ZM149.867 30.5H146.891V31.5H149.867V30.5ZM147.391 31V17.752H146.391V31H147.391ZM146.891 18.252H149.547V17.252H146.891V18.252ZM172.849 30.52L172.614 30.9615L172.618 30.9635L172.849 30.52ZM170.449 28.184L170.011 28.4254L170.017 28.4359L170.449 28.184ZM170.513 20.568L170.946 20.8189L170.948 20.8152L170.513 20.568ZM172.977 18.072L172.736 17.6341L172.732 17.6362L172.977 18.072ZM179.537 18.072L179.257 18.4865L179.265 18.4912L179.537 18.072ZM181.489 20.056L181.957 20.2316L182.041 20.0092L181.921 19.8041L181.489 20.056ZM181.297 20.568L180.8 20.5171L181.765 20.7436L181.297 20.568ZM181.585 17.752V17.252H181.134L181.088 17.7011L181.585 17.752ZM184.337 17.752H184.837V17.252H184.337V17.752ZM184.337 31V31.5H184.837V31H184.337ZM181.361 31H180.861V31.5H181.361V31ZM181.361 27.544L181.823 27.3517L180.861 27.544H181.361ZM181.681 28.312L182.145 28.4977L182.221 28.3081L182.143 28.1197L181.681 28.312ZM181.105 29.144L180.729 28.8147L180.727 28.8165L181.105 29.144ZM179.953 30.136L179.667 29.7255L179.659 29.7316L179.953 30.136ZM178.321 31L178.484 31.4727L178.491 31.4702L178.498 31.4675L178.321 31ZM179.057 28.44L178.846 27.9865L178.846 27.9865L179.057 28.44ZM180.529 27.288L180.137 26.9776L180.135 26.9798L180.529 27.288ZM181.361 25.464L181.85 25.5678L181.861 25.5164V25.464H181.361ZM181.361 22.872H181.861V22.8065L181.844 22.7432L181.361 22.872ZM180.465 21.208L180.088 21.5362L180.095 21.5443L180.465 21.208ZM178.929 20.088L178.718 20.5415L178.725 20.5446L178.732 20.5476L178.929 20.088ZM174.769 20.248L174.518 19.8156L174.518 19.8156L174.769 20.248ZM173.169 21.848L172.739 21.5927L172.733 21.6029L173.169 21.848ZM173.201 26.584L173.634 26.3345L173.634 26.3345L173.201 26.584ZM176.241 30.82C175.078 30.82 174.028 30.5701 173.08 30.0765L172.618 30.9635C173.718 31.5366 174.929 31.82 176.241 31.82V30.82ZM173.084 30.0786C172.167 29.5908 171.434 28.8795 170.881 27.9321L170.017 28.4359C170.659 29.5365 171.526 30.3825 172.614 30.9614L173.084 30.0786ZM170.887 27.9427C170.361 26.9876 170.085 25.8058 170.085 24.376H169.085C169.085 25.9329 169.385 27.2897 170.011 28.4253L170.887 27.9427ZM170.085 24.376C170.085 22.975 170.379 21.7958 170.946 20.8189L170.08 20.3171C169.41 21.4736 169.085 22.833 169.085 24.376H170.085ZM170.948 20.8152C171.524 19.8007 172.282 19.0364 173.222 18.5078L172.732 17.6362C171.624 18.2596 170.739 19.1593 170.078 20.3208L170.948 20.8152ZM173.218 18.5099C174.187 17.9762 175.245 17.708 176.401 17.708V16.708C175.083 16.708 173.858 17.0158 172.736 17.6341L173.218 18.5099ZM176.401 17.708C177.559 17.708 178.502 17.9766 179.257 18.4864L179.817 17.6576C178.865 17.0154 177.718 16.708 176.401 16.708V17.708ZM179.265 18.4912C180.062 19.0095 180.654 19.6165 181.057 20.3079L181.921 19.8041C181.428 18.9595 180.719 18.2438 179.809 17.6528L179.265 18.4912ZM181.021 19.8804L180.829 20.3924L181.765 20.7436L181.957 20.2316L181.021 19.8804ZM181.794 20.6189L182.082 17.8029L181.088 17.7011L180.8 20.5171L181.794 20.6189ZM181.585 18.252H184.337V17.252H181.585V18.252ZM183.837 17.752V31H184.837V17.752H183.837ZM184.337 30.5H181.361V31.5H184.337V30.5ZM181.861 31V27.544H180.861V31H181.861ZM180.899 27.7363L181.219 28.5043L182.143 28.1197L181.823 27.3517L180.899 27.7363ZM181.217 28.1263C181.164 28.2578 181.019 28.4829 180.729 28.8147L181.481 29.4733C181.788 29.1225 182.027 28.7928 182.145 28.4977L181.217 28.1263ZM180.727 28.8165C180.486 29.0952 180.137 29.399 179.667 29.7255L180.239 30.5465C180.751 30.1903 181.17 29.8328 181.483 29.4715L180.727 28.8165ZM179.659 29.7316C179.23 30.0435 178.726 30.3114 178.144 30.5325L178.498 31.4675C179.153 31.2192 179.737 30.9112 180.247 30.5404L179.659 29.7316ZM178.158 30.5273C177.6 30.7197 176.963 30.82 176.241 30.82V31.82C177.055 31.82 177.805 31.7069 178.484 31.4727L178.158 30.5273ZM177.041 29.356C177.851 29.356 178.596 29.2053 179.268 28.8935L178.846 27.9865C178.323 28.2293 177.725 28.356 177.041 28.356V29.356ZM179.268 28.8935C179.932 28.5848 180.487 28.1526 180.923 27.5962L180.135 26.9798C179.803 27.4047 179.376 27.7405 178.846 27.9865L179.268 28.8935ZM180.921 27.5984C181.379 27.0199 181.686 26.3394 181.85 25.5678L180.872 25.3602C180.737 25.9966 180.49 26.5321 180.137 26.9776L180.921 27.5984ZM181.861 25.464V22.872H180.861V25.464H181.861ZM181.844 22.7432C181.654 22.0295 181.318 21.4028 180.835 20.8717L180.095 21.5443C180.466 21.9519 180.727 22.4345 180.878 23.0008L181.844 22.7432ZM180.842 20.8799C180.366 20.3324 179.793 19.9141 179.126 19.6284L178.732 20.5476C179.26 20.7739 179.71 21.1022 180.088 21.5361L180.842 20.8799ZM179.14 19.6345C178.47 19.3235 177.736 19.172 176.945 19.172V20.172C177.605 20.172 178.194 20.2978 178.718 20.5415L179.14 19.6345ZM176.945 19.172C176.07 19.172 175.258 19.3859 174.518 19.8156L175.02 20.6804C175.603 20.3421 176.241 20.172 176.945 20.172V19.172ZM174.518 19.8156C173.78 20.2441 173.186 20.8396 172.739 21.5927L173.599 22.1033C173.962 21.491 174.435 21.0199 175.02 20.6804L174.518 19.8156ZM172.733 21.6029C172.3 22.3723 172.093 23.2596 172.093 24.248H173.093C173.093 23.4017 173.27 22.689 173.605 22.0931L172.733 21.6029ZM172.093 24.248C172.093 25.1843 172.316 26.0497 172.768 26.8335L173.634 26.3345C173.275 25.7103 173.093 25.0184 173.093 24.248H172.093ZM172.768 26.8335C173.215 27.6101 173.819 28.2277 174.578 28.6779L175.088 27.8181C174.481 27.4576 173.998 26.9659 173.634 26.3345L172.768 26.8335ZM174.578 28.6779C175.337 29.1288 176.161 29.356 177.041 29.356V28.356C176.342 28.356 175.694 28.1778 175.088 27.8181L174.578 28.6779ZM190.703 37.208L190.853 36.7308L190.84 36.7272L190.703 37.208ZM188.655 36.28L188.374 36.6938L188.381 36.6982L188.655 36.28ZM186.927 34.904L186.547 34.5786L186.234 34.9445L186.588 35.2714L186.927 34.904ZM188.655 32.888L188.997 32.5236L188.616 32.1653L188.275 32.5626L188.655 32.888ZM190.799 34.424L190.575 34.8712L190.575 34.8712L190.799 34.424ZM195.759 34.456L195.552 34.0008L195.544 34.0046L195.535 34.0088L195.759 34.456ZM197.359 33.08L196.936 32.8136L196.932 32.8205L197.359 33.08ZM197.903 31.064L197.403 31.0595V31.064H197.903ZM197.935 27.48L198.392 27.2769L197.435 27.4755L197.935 27.48ZM198.191 28.056L198.652 28.2491L198.736 28.0501L198.648 27.8529L198.191 28.056ZM196.111 30.392L196.374 30.8176L196.38 30.8135L196.111 30.392ZM189.103 30.392L188.84 30.8175L188.844 30.82L189.103 30.392ZM186.671 27.896L186.235 28.1404L186.241 28.1507L186.671 27.896ZM186.735 20.664L187.161 20.9251L187.164 20.9212L186.735 20.664ZM189.263 18.136L189.518 18.5663L189.518 18.5663L189.263 18.136ZM195.887 17.944L195.659 18.3894L195.671 18.3951L195.887 17.944ZM198.031 19.768L198.511 19.9091L198.573 19.6988L198.46 19.5108L198.031 19.768ZM197.871 20.312L197.375 20.25L198.351 20.4531L197.871 20.312ZM198.191 17.752V17.252H197.75L197.695 17.69L198.191 17.752ZM200.911 17.752H201.411V17.252H200.911V17.752ZM199.983 34.36L200.406 34.6267L200.406 34.6267L199.983 34.36ZM197.359 36.696L197.132 36.2505L197.132 36.2505L197.359 36.696ZM189.359 26.584L188.926 26.8335L188.926 26.8335L189.359 26.584ZM190.991 28.248L190.736 28.678L190.742 28.6813L190.991 28.248ZM195.439 28.44L195.644 28.8963L195.65 28.8931L195.439 28.44ZM197.039 27.256L197.416 27.5842L197.423 27.5761L197.039 27.256ZM197.935 25.496L198.419 25.6209L198.435 25.5595V25.496H197.935ZM197.935 22.872H198.435V22.7986L198.414 22.7283L197.935 22.872ZM196.975 21.208L196.606 21.5452L196.613 21.5532L196.975 21.208ZM195.375 20.088L195.17 20.5443L195.177 20.5472L195.184 20.55L195.375 20.088ZM190.991 20.248L190.752 19.809L190.746 19.8122L190.991 20.248ZM189.359 21.88L189.789 22.1353L189.792 22.1295L189.359 21.88ZM193.295 37.06C192.352 37.06 191.541 36.9471 190.853 36.731L190.553 37.685C191.359 37.9382 192.275 38.06 193.295 38.06V37.06ZM190.84 36.7272C190.14 36.5271 189.503 36.2381 188.929 35.8618L188.381 36.6982C189.044 37.1325 189.773 37.4623 190.566 37.6888L190.84 36.7272ZM188.936 35.8663C188.36 35.4755 187.803 35.0325 187.266 34.5366L186.588 35.2714C187.16 35.7995 187.755 36.2738 188.374 36.6937L188.936 35.8663ZM187.307 35.2294L189.035 33.2134L188.275 32.5626L186.547 34.5786L187.307 35.2294ZM188.313 33.2524C189.045 33.9408 189.799 34.4832 190.575 34.8712L191.023 33.9768C190.348 33.6395 189.673 33.1578 188.997 32.5236L188.313 33.2524ZM190.575 34.8712C191.377 35.2721 192.266 35.468 193.231 35.468V34.468C192.404 34.468 191.671 34.3012 191.023 33.9768L190.575 34.8712ZM193.231 35.468C194.288 35.468 195.212 35.2884 195.983 34.9032L195.535 34.0088C194.94 34.3063 194.179 34.468 193.231 34.468V35.468ZM195.966 34.9112C196.751 34.5542 197.366 34.0318 197.786 33.3395L196.932 32.8205C196.627 33.3229 196.175 33.7178 195.552 34.0008L195.966 34.9112ZM197.782 33.3464C198.201 32.6807 198.403 31.9138 198.403 31.064H197.403C197.403 31.7502 197.242 32.3273 196.936 32.8136L197.782 33.3464ZM198.403 31.0685L198.435 27.4845L197.435 27.4755L197.403 31.0595L198.403 31.0685ZM197.478 27.6831L197.734 28.2591L198.648 27.8529L198.392 27.2769L197.478 27.6831ZM197.73 27.8629C197.392 28.6692 196.776 29.3744 195.842 29.9705L196.38 30.8135C197.451 30.1296 198.222 29.2775 198.652 28.2491L197.73 27.8629ZM195.848 29.9665C194.94 30.527 193.819 30.82 192.463 30.82V31.82C193.965 31.82 195.277 31.4943 196.374 30.8175L195.848 29.9665ZM192.463 30.82C191.337 30.82 190.306 30.5348 189.362 29.964L188.844 30.82C189.948 31.4866 191.157 31.82 192.463 31.82V30.82ZM189.366 29.9665C188.434 29.3917 187.68 28.6192 187.101 27.6413L186.241 28.1507C186.899 29.2634 187.767 30.155 188.84 30.8175L189.366 29.9665ZM187.107 27.6517C186.555 26.6657 186.275 25.5563 186.275 24.312H185.275C185.275 25.713 185.592 26.9929 186.235 28.1403L187.107 27.6517ZM186.275 24.312C186.275 23.0051 186.576 21.8819 187.161 20.9251L186.309 20.4029C185.614 21.5368 185.275 22.8456 185.275 24.312H186.275ZM187.164 20.9212C187.762 19.924 188.546 19.1416 189.518 18.5663L189.008 17.7057C187.89 18.3677 186.988 19.2706 186.306 20.4068L187.164 20.9212ZM189.518 18.5663C190.484 17.9941 191.538 17.708 192.687 17.708V16.708C191.362 16.708 190.132 17.0405 189.008 17.7057L189.518 18.5663ZM192.687 17.708C193.788 17.708 194.776 17.9377 195.659 18.3892L196.115 17.4988C195.078 16.969 193.932 16.708 192.687 16.708V17.708ZM195.671 18.3951C196.586 18.8326 197.216 19.3815 197.602 20.0252L198.46 19.5108C197.95 18.6612 197.15 17.994 196.103 17.4929L195.671 18.3951ZM197.551 19.6269L197.391 20.1709L198.351 20.4531L198.511 19.9091L197.551 19.6269ZM198.367 20.374L198.687 17.814L197.695 17.69L197.375 20.25L198.367 20.374ZM198.191 18.252H200.911V17.252H198.191V18.252ZM200.411 17.752V31.096H201.411V17.752H200.411ZM200.411 31.096C200.411 32.1993 200.127 33.1943 199.56 34.0933L200.406 34.6267C201.077 33.563 201.411 32.3821 201.411 31.096H200.411ZM199.56 34.0933C198.994 34.9914 198.19 35.7114 197.132 36.2505L197.586 37.1415C198.789 36.5286 199.735 35.6912 200.406 34.6267L199.56 34.0933ZM197.132 36.2505C196.087 36.783 194.814 37.06 193.295 37.06V38.06C194.934 38.06 196.37 37.761 197.586 37.1415L197.132 36.2505ZM188.251 24.248C188.251 25.1843 188.474 26.0497 188.926 26.8335L189.792 26.3345C189.433 25.7103 189.251 25.0184 189.251 24.248H188.251ZM188.926 26.8335C189.373 27.6101 189.977 28.2277 190.736 28.6779L191.246 27.8181C190.639 27.4576 190.156 26.9659 189.792 26.3345L188.926 26.8335ZM190.742 28.6813C191.525 29.1326 192.391 29.356 193.327 29.356V28.356C192.557 28.356 191.865 28.1741 191.24 27.8147L190.742 28.6813ZM193.327 29.356C194.175 29.356 194.951 29.2068 195.644 28.8963L195.234 27.9837C194.69 28.2279 194.057 28.356 193.327 28.356V29.356ZM195.65 28.8931C196.348 28.5674 196.94 28.132 197.416 27.5841L196.662 26.9279C196.285 27.3613 195.81 27.7153 195.228 27.9869L195.65 28.8931ZM197.423 27.5761C197.898 27.0058 198.23 26.3521 198.419 25.6209L197.451 25.3711C197.298 25.9626 197.033 26.4822 196.655 26.9359L197.423 27.5761ZM198.435 25.496V22.872H197.435V25.496H198.435ZM198.414 22.7283C198.2 22.0152 197.841 21.3908 197.337 20.8628L196.613 21.5532C197.005 21.9638 197.286 22.4488 197.456 23.0157L198.414 22.7283ZM197.344 20.8709C196.846 20.3256 196.252 19.9098 195.566 19.626L195.184 20.55C195.735 20.7782 196.208 21.1091 196.606 21.5451L197.344 20.8709ZM195.58 19.6317C194.89 19.3228 194.137 19.172 193.327 19.172V20.172C194.01 20.172 194.622 20.2986 195.17 20.5443L195.58 19.6317ZM193.327 19.172C192.396 19.172 191.534 19.3824 190.752 19.8091L191.23 20.6869C191.856 20.3456 192.552 20.172 193.327 20.172V19.172ZM190.746 19.8122C189.982 20.242 189.374 20.8517 188.926 21.6305L189.792 22.1295C190.155 21.5003 190.635 21.022 191.236 20.6838L190.746 19.8122ZM188.929 21.6247C188.472 22.3942 188.251 23.274 188.251 24.248H189.251C189.251 23.43 189.435 22.7311 189.789 22.1353L188.929 21.6247ZM205.732 30.424L205.485 30.8587L205.491 30.8623L205.732 30.424ZM203.204 27.928L202.764 28.1656L202.77 28.1761L203.204 27.928ZM203.332 20.728L203.757 20.9915L203.757 20.9915L203.332 20.728ZM214.052 18.744L213.72 19.1177L213.72 19.1177L214.052 18.744ZM216.388 22.968L216.554 23.4396L216.974 23.2919L216.876 22.8577L216.388 22.968ZM205.476 26.808L205.012 26.9937L205.19 27.4388L205.642 27.2796L205.476 26.808ZM204.772 25.048L204.601 24.5782L204.116 24.7548L204.308 25.2337L204.772 25.048ZM213.732 21.784L214.004 22.2032L213.561 21.3142L213.732 21.784ZM213.092 22.2L212.622 22.3709L212.837 22.962L213.364 22.6192L213.092 22.2ZM211.812 20.376L211.479 20.749L211.487 20.7556L211.812 20.376ZM207.3 20.184L207.557 20.6129L207.568 20.6064L207.3 20.184ZM205.796 21.784L206.238 22.0186L206.238 22.0186L205.796 21.784ZM205.828 26.552L205.389 26.7914L205.392 26.7971L205.828 26.552ZM207.396 28.184L207.135 28.6103L207.143 28.6152L207.151 28.6198L207.396 28.184ZM211.364 28.44L211.184 27.9733L211.178 27.9758L211.364 28.44ZM212.9 27.608L213.324 27.3436L213.04 26.8877L212.606 27.2036L212.9 27.608ZM214.276 29.816L214.556 30.23L214.955 29.96L214.7 29.5516L214.276 29.816ZM212.036 30.904L211.878 30.4296L211.874 30.4309L212.036 30.904ZM209.636 30.82C208.187 30.82 206.972 30.5346 205.973 29.9857L205.491 30.8623C206.668 31.5081 208.056 31.82 209.636 31.82V30.82ZM205.979 29.9894C204.966 29.4132 204.189 28.6443 203.638 27.6799L202.77 28.1761C203.413 29.3024 204.322 30.1975 205.485 30.8586L205.979 29.9894ZM203.644 27.6904C203.112 26.7056 202.84 25.573 202.84 24.28H201.84C201.84 25.7177 202.144 27.0171 202.764 28.1656L203.644 27.6904ZM202.84 24.28C202.84 23.0682 203.147 21.976 203.757 20.9915L202.907 20.4645C202.195 21.6133 201.84 22.8892 201.84 24.28H202.84ZM203.757 20.9915C204.374 19.9964 205.198 19.2007 206.238 18.6011L205.738 17.7349C204.559 18.4153 203.613 19.3263 202.907 20.4645L203.757 20.9915ZM206.238 18.6011C207.266 18.0078 208.416 17.708 209.7 17.708V16.708C208.253 16.708 206.928 17.0482 205.738 17.7349L206.238 18.6011ZM209.7 17.708C211.345 17.708 212.672 18.1861 213.72 19.1177L214.384 18.3703C213.128 17.2539 211.554 16.708 209.7 16.708V17.708ZM213.72 19.1177C214.78 20.0598 215.513 21.3681 215.9 23.0783L216.876 22.8577C216.452 20.9839 215.628 19.4762 214.384 18.3703L213.72 19.1177ZM216.222 22.4964L205.31 26.3364L205.642 27.2796L216.554 23.4396L216.222 22.4964ZM205.94 26.6223L205.236 24.8623L204.308 25.2337L205.012 26.9937L205.94 26.6223ZM204.943 25.5178L213.903 22.2538L213.561 21.3142L204.601 24.5782L204.943 25.5178ZM213.46 21.3648L212.82 21.7808L213.364 22.6192L214.004 22.2032L213.46 21.3648ZM213.562 22.0291C213.275 21.2402 212.797 20.5614 212.137 19.9964L211.487 20.7556C212.022 21.2146 212.397 21.7518 212.622 22.3709L213.562 22.0291ZM212.145 20.003C211.439 19.3722 210.533 19.076 209.476 19.076V20.076C210.339 20.076 210.991 20.3131 211.479 20.749L212.145 20.003ZM209.476 19.076C208.578 19.076 207.758 19.302 207.032 19.7616L207.568 20.6064C208.122 20.2553 208.753 20.076 209.476 20.076V19.076ZM207.043 19.7553C206.322 20.1877 205.758 20.7895 205.354 21.5494L206.238 22.0186C206.559 21.4132 206.998 20.9483 207.557 20.6127L207.043 19.7553ZM205.354 21.5494C204.949 22.3134 204.752 23.1744 204.752 24.12H205.752C205.752 23.3162 205.918 22.62 206.238 22.0186L205.354 21.5494ZM204.752 24.12C204.752 25.1088 204.96 26.004 205.389 26.7914L206.267 26.3126C205.928 25.692 205.752 24.9658 205.752 24.12H204.752ZM205.392 26.7971C205.818 27.5533 206.4 28.16 207.135 28.6103L207.657 27.7577C207.069 27.3974 206.606 26.916 206.264 26.3069L205.392 26.7971ZM207.151 28.6198C207.915 29.0496 208.769 29.26 209.7 29.26V28.26C208.925 28.26 208.242 28.0864 207.641 27.7482L207.151 28.6198ZM209.7 29.26C210.339 29.26 210.957 29.1413 211.55 28.9042L211.178 27.9758C210.704 28.1654 210.213 28.26 209.7 28.26V29.26ZM211.543 28.9067C212.138 28.678 212.689 28.38 213.194 28.0124L212.606 27.2036C212.173 27.5187 211.699 27.7753 211.185 27.9733L211.543 28.9067ZM212.476 27.8724L213.852 30.0804L214.7 29.5516L213.324 27.3436L212.476 27.8724ZM213.996 29.402C213.376 29.8221 212.671 30.1654 211.878 30.4297L212.194 31.3783C213.065 31.088 213.854 30.7059 214.556 30.23L213.996 29.402ZM211.874 30.4309C211.111 30.6919 210.366 30.82 209.636 30.82V31.82C210.485 31.82 211.34 31.6707 212.198 31.3771L211.874 30.4309Z" fill="#7857FF"/>
<path d="M22.5997 2.86268C22.9637 2.10959 24.0363 2.10959 24.4003 2.86268L27.1219 8.49318C27.3659 8.9981 27.9774 9.20364 28.4769 8.94865L35.0416 5.59725C35.8515 5.18378 36.7482 5.97829 36.4352 6.83208L34.6235 11.7743C34.3888 12.4146 34.8498 13.0969 35.5314 13.118L42.4711 13.333C43.4667 13.3639 43.8101 14.6723 42.958 15.188L38.1711 18.0854C37.5061 18.4879 37.5345 19.462 38.2218 19.8251L56.9138 29.6999C57.9836 30.265 57.3175 31.89 56.1589 31.5417L36.0617 25.5005C35.2726 25.2633 34.5513 26.0287 34.8349 26.8024L36.4352 31.1679C36.7482 32.0217 35.8515 32.8162 35.0416 32.4028L28.4769 29.0514C27.9774 28.7964 27.3659 29.0019 27.1219 29.5068L24.4003 35.1373C24.0363 35.8904 22.9637 35.8904 22.5997 35.1373L19.8781 29.5068C19.634 29.0019 19.0226 28.7964 18.5231 29.0514L11.9584 32.4028C11.1485 32.8162 10.2518 32.0217 10.5648 31.1679L12.3765 26.2257C12.6112 25.5854 12.1502 24.9031 11.4686 24.882L4.52887 24.667C3.53333 24.6361 3.18994 23.3277 4.04202 22.812L8.92658 19.8555C9.5695 19.4664 9.5695 18.5336 8.92658 18.1445L4.04203 15.188C3.18994 14.6723 3.53333 13.3639 4.52886 13.333L11.4686 13.118C12.1502 13.0969 12.6112 12.4146 12.3765 11.7743L10.5648 6.83207C10.2518 5.97829 11.1485 5.18377 11.9584 5.59725L18.5231 8.94864C19.0226 9.20364 19.634 8.9981 19.8781 8.49318L22.5997 2.86268Z" fill="#7857FF"/>
</svg>
