<svg width="55" height="34" viewBox="0 0 55 34" fill="none" xmlns="http://www.w3.org/2000/svg">
<path d="M19.5997 0.862676C19.9637 0.109592 21.0363 0.109592 21.4003 0.862676L24.1219 6.49318C24.3659 6.9981 24.9774 7.20364 25.4769 6.94865L32.0416 3.59725C32.8515 3.18378 33.7482 3.97829 33.4352 4.83208L31.6235 9.77432C31.3888 10.4146 31.8498 11.0969 32.5314 11.118L39.4711 11.333C40.4667 11.3639 40.8101 12.6723 39.958 13.188L35.1711 16.0854C34.5061 16.4879 34.5345 17.462 35.2218 17.8251L53.9138 27.6999C54.9836 28.265 54.3175 29.89 53.1589 29.5417L33.0617 23.5005C32.2726 23.2633 31.5513 24.0287 31.8349 24.8024L33.4352 29.1679C33.7482 30.0217 32.8515 30.8162 32.0416 30.4028L25.4769 27.0514C24.9774 26.7964 24.3659 27.0019 24.1219 27.5068L21.4003 33.1373C21.0363 33.8904 19.9637 33.8904 19.5997 33.1373L16.8781 27.5068C16.634 27.0019 16.0226 26.7964 15.5231 27.0514L8.95837 30.4028C8.14846 30.8162 7.25179 30.0217 7.56477 29.1679L9.37649 24.2257C9.61122 23.5854 9.15021 22.9031 8.46855 22.882L1.52887 22.667C0.533331 22.6361 0.189936 21.3277 1.04202 20.812L5.92658 17.8555C6.5695 17.4664 6.5695 16.5336 5.92658 16.1445L1.04203 13.188C0.189938 12.6723 0.533328 11.3639 1.52886 11.333L8.46855 11.118C9.15021 11.0969 9.61122 10.4146 9.37649 9.77432L7.56477 4.83207C7.25179 3.97829 8.14846 3.18377 8.95837 3.59725L15.5231 6.94864C16.0226 7.20364 16.634 6.9981 16.8781 6.49318L19.5997 0.862676Z" fill="#7857FF"/>
</svg>
